<svg width="85" height="85" viewBox="0 0 85 85" fill="none" xmlns="http://www.w3.org/2000/svg">
<path d="M42.1243 0.120361C30.7177 0.120361 29.2862 0.170237 24.8061 0.374112C20.3348 0.578862 17.2828 1.28674 14.6123 2.32536C11.8499 3.39811 9.50658 4.83311 7.17206 7.16849C4.83579 9.50299 3.40077 11.8462 2.32451 14.6077C1.28325 17.2791 0.574491 20.332 0.373239 24.8015C0.172861 29.2815 0.120361 30.7139 0.120361 42.1204C0.120361 53.5269 0.171113 54.954 0.374115 59.434C0.579742 63.9052 1.28762 66.9572 2.32538 69.6277C3.39902 72.3901 4.83404 74.7334 7.16943 77.0679C9.50308 79.4041 11.8464 80.8426 14.607 81.9154C17.2793 82.954 20.3322 83.6619 24.8026 83.8666C29.2827 84.0705 30.7133 84.1204 42.1191 84.1204C53.5265 84.1204 54.9537 84.0705 59.4337 83.8666C63.905 83.6619 66.9606 82.954 69.6328 81.9154C72.3944 80.8426 74.7341 79.4041 77.0678 77.0679C79.4041 74.7334 80.8391 72.3901 81.9153 69.6286C82.9478 66.9572 83.6566 63.9044 83.8666 59.4349C84.0679 54.9549 84.1204 53.5269 84.1204 42.1204C84.1204 30.7139 84.0679 29.2824 83.8666 24.8024C83.6566 20.3311 82.9478 17.2791 81.9153 14.6086C80.8391 11.8462 79.4041 9.50299 77.0678 7.16849C74.7315 4.83224 72.3952 3.39724 69.6302 2.32536C66.9527 1.28674 63.8989 0.578862 59.4276 0.374112C54.9476 0.170237 53.5213 0.120361 42.1112 0.120361H42.1243ZM38.3565 7.68911C39.4748 7.68736 40.7225 7.68911 42.1243 7.68911C53.3384 7.68911 54.6676 7.72936 59.096 7.93061C63.191 8.11786 65.4135 8.80211 66.8941 9.37699C68.8541 10.1382 70.2515 11.0482 71.7206 12.5182C73.1906 13.9882 74.1006 15.3882 74.8636 17.3482C75.4385 18.827 76.1237 21.0495 76.31 25.1445C76.5113 29.572 76.555 30.902 76.555 42.1107C76.555 53.3195 76.5113 54.6495 76.31 59.077C76.1228 63.172 75.4385 65.3945 74.8636 66.8732C74.1024 68.8332 73.1906 70.2289 71.7206 71.698C70.2506 73.168 68.8549 74.078 66.8941 74.8392C65.4153 75.4167 63.191 76.0992 59.096 76.2865C54.6684 76.4877 53.3384 76.5315 42.1243 76.5315C30.9093 76.5315 29.5802 76.4877 25.1526 76.2865C21.0576 76.0975 18.8351 75.4132 17.3537 74.8384C15.3936 74.0771 13.9936 73.1671 12.5236 71.6971C11.0536 70.2271 10.1436 68.8306 9.38058 66.8697C8.8057 65.391 8.12057 63.1685 7.93419 59.0735C7.73294 54.646 7.69269 53.316 7.69269 42.1002C7.69269 30.8845 7.73294 29.5615 7.93419 25.134C8.12144 21.039 8.8057 18.8165 9.38058 17.336C10.1418 15.376 11.0536 13.976 12.5236 12.506C13.9936 11.036 15.3936 10.126 17.3537 9.36299C18.8342 8.78549 21.0576 8.10299 25.1526 7.91486C29.0272 7.73986 30.5287 7.68736 38.3565 7.67861V7.68911ZM64.5438 14.6629C61.7613 14.6629 59.5037 16.9177 59.5037 19.7011C59.5037 22.4836 61.7613 24.7411 64.5438 24.7411C67.3263 24.7411 69.5838 22.4836 69.5838 19.7011C69.5838 16.9186 67.3263 14.6611 64.5438 14.6611V14.6629ZM42.1243 20.5516C30.2128 20.5516 20.5553 30.209 20.5553 42.1204C20.5553 54.0317 30.2128 63.6847 42.1243 63.6847C54.0358 63.6847 63.6898 54.0317 63.6898 42.1204C63.6898 30.209 54.0358 20.5516 42.1243 20.5516ZM42.1243 28.1204C49.8559 28.1204 56.1244 34.388 56.1244 42.1204C56.1244 49.8519 49.8559 56.1204 42.1243 56.1204C34.3918 56.1204 28.1242 49.8519 28.1242 42.1204C28.1242 34.388 34.3918 28.1204 42.1243 28.1204Z" fill="#252525"/>
</svg>
