<svg width="88" height="72" viewBox="0 0 88 72" fill="none" xmlns="http://www.w3.org/2000/svg">
<g clip-path="url(#clip0_30_30)">
<path d="M78.7564 18.1024C78.8096 18.8683 78.8096 19.6342 78.8096 20.4071C78.8096 43.9589 60.7838 71.1213 27.8228 71.1213V71.1071C18.086 71.1213 8.55151 68.3471 0.354736 63.1166C1.77054 63.286 3.19345 63.3707 4.6199 63.3742C12.6889 63.3813 20.5273 60.6883 26.8754 55.7295C19.2073 55.5848 12.4831 50.6118 10.1341 43.3518C12.8202 43.8671 15.588 43.7613 18.2244 43.0448C9.86441 41.3648 3.8499 34.0589 3.8499 25.5742C3.8499 25.4965 3.8499 25.4224 3.8499 25.3483C6.34087 26.7283 9.1299 27.4942 11.9828 27.5789C4.10893 22.3448 1.68183 11.926 6.43667 3.78008C15.5347 14.9154 28.9583 21.6848 43.3683 22.4013C41.9241 16.2107 43.897 9.72361 48.5525 5.37184C55.7699 -1.37639 67.1212 -1.03051 73.9057 6.14478C77.9189 5.35773 81.7654 3.89302 85.2854 1.81773C83.9476 5.94361 81.148 9.44832 77.408 11.6754C80.9599 11.2589 84.4302 10.313 87.6983 8.86949C85.2925 12.4554 82.2622 15.5789 78.7564 18.1024Z" fill="#252525"/>
</g>
<defs>
<clipPath id="clip0_30_30">
<rect width="88" height="72" fill="white"/>
</clipPath>
</defs>
</svg>
